<mxfile host="Electron" agent="Mozilla/5.0 (Windows NT 10.0; Win64; x64) AppleWebKit/537.36 (KHTML, like Gecko) draw.io/27.0.9 Chrome/134.0.6998.205 Electron/35.4.0 Safari/537.36" version="27.0.9">
  <diagram name="Page-1" id="fbcf5db9-b524-4cd4-e4f3-379dc89c3999">
    <mxGraphModel dx="1188" dy="708" grid="1" gridSize="10" guides="1" tooltips="1" connect="1" arrows="1" fold="1" page="1" pageScale="1" pageWidth="850" pageHeight="1100" background="none" math="0" shadow="0">
      <root>
        <mxCell id="0" />
        <mxCell id="1" parent="0" />
        <mxCell id="kriRiuLOUkbYovt947My-6" value="" style="shape=curlyBracket;whiteSpace=wrap;html=1;rounded=1;labelPosition=left;verticalLabelPosition=middle;align=right;verticalAlign=middle;" vertex="1" parent="1">
          <mxGeometry x="40" y="100" width="20" height="290" as="geometry" />
        </mxCell>
        <mxCell id="kriRiuLOUkbYovt947My-7" value="&lt;font style=&quot;font-size: 16px;&quot;&gt;Single&lt;/font&gt;" style="rounded=1;whiteSpace=wrap;html=1;strokeColor=#10739E;fillColor=#10739E;fontColor=#FFFFFF;" vertex="1" parent="1">
          <mxGeometry x="80" y="100" width="120" height="100" as="geometry" />
        </mxCell>
        <mxCell id="kriRiuLOUkbYovt947My-8" value="&lt;font style=&quot;font-size: 16px;&quot;&gt;RUN MODE&lt;/font&gt;" style="rounded=1;whiteSpace=wrap;html=1;strokeColor=#F2931E;fillColor=#F2931E;fontColor=#FFFFFF;" vertex="1" parent="1">
          <mxGeometry x="80" y="30" width="120" height="40" as="geometry" />
        </mxCell>
        <mxCell id="kriRiuLOUkbYovt947My-9" value="&lt;font style=&quot;font-size: 16px;&quot;&gt;AREA&lt;/font&gt;" style="rounded=1;whiteSpace=wrap;html=1;strokeColor=#F2931E;fillColor=#F2931E;fontColor=#FFFFFF;" vertex="1" parent="1">
          <mxGeometry x="230" y="30" width="70" height="40" as="geometry" />
        </mxCell>
        <mxCell id="kriRiuLOUkbYovt947My-10" value="" style="line;strokeWidth=1;html=1;spacing=2;spacingTop=6;" vertex="1" parent="1">
          <mxGeometry x="80" y="80" width="230" height="10" as="geometry" />
        </mxCell>
        <mxCell id="kriRiuLOUkbYovt947My-12" value="&lt;span style=&quot;font-size: 16px;&quot;&gt;Cycle&lt;/span&gt;" style="rounded=1;whiteSpace=wrap;html=1;strokeColor=#10739E;fillColor=#10739E;fontColor=#FFFFFF;" vertex="1" parent="1">
          <mxGeometry x="80" y="210" width="120" height="40" as="geometry" />
        </mxCell>
        <mxCell id="kriRiuLOUkbYovt947My-13" value="&lt;span style=&quot;font-size: 16px;&quot;&gt;Batch&lt;/span&gt;" style="rounded=1;whiteSpace=wrap;html=1;strokeColor=#10739E;fillColor=#10739E;fontColor=#FFFFFF;" vertex="1" parent="1">
          <mxGeometry x="80" y="260" width="120" height="40" as="geometry" />
        </mxCell>
        <mxCell id="kriRiuLOUkbYovt947My-14" value="&lt;span style=&quot;font-size: 16px;&quot;&gt;IMP&lt;/span&gt;" style="rounded=1;whiteSpace=wrap;html=1;strokeColor=#10739E;fillColor=#10739E;fontColor=#FFFFFF;" vertex="1" parent="1">
          <mxGeometry x="80" y="310" width="120" height="40" as="geometry" />
        </mxCell>
        <mxCell id="kriRiuLOUkbYovt947My-15" value="&lt;span style=&quot;font-size: 16px;&quot;&gt;MTL&lt;/span&gt;" style="rounded=1;whiteSpace=wrap;html=1;strokeColor=#10739E;fillColor=#10739E;fontColor=#FFFFFF;" vertex="1" parent="1">
          <mxGeometry x="80" y="360" width="120" height="40" as="geometry" />
        </mxCell>
        <mxCell id="kriRiuLOUkbYovt947My-16" value="&lt;span style=&quot;font-size: 16px;&quot;&gt;ET&lt;/span&gt;" style="rounded=1;whiteSpace=wrap;html=1;strokeColor=#10739E;fillColor=#10739E;fontColor=#FFFFFF;" vertex="1" parent="1">
          <mxGeometry x="240" y="100" width="60" height="30" as="geometry" />
        </mxCell>
        <mxCell id="kriRiuLOUkbYovt947My-17" value="&lt;span style=&quot;font-size: 16px;&quot;&gt;PT&lt;/span&gt;" style="rounded=1;whiteSpace=wrap;html=1;strokeColor=#10739E;fillColor=#10739E;fontColor=#FFFFFF;" vertex="1" parent="1">
          <mxGeometry x="240" y="140" width="60" height="30" as="geometry" />
        </mxCell>
        <mxCell id="kriRiuLOUkbYovt947My-18" value="&lt;span style=&quot;font-size: 16px;&quot;&gt;DF&lt;/span&gt;" style="rounded=1;whiteSpace=wrap;html=1;strokeColor=#10739E;fillColor=#10739E;fontColor=#FFFFFF;" vertex="1" parent="1">
          <mxGeometry x="240" y="180" width="60" height="30" as="geometry" />
        </mxCell>
        <mxCell id="kriRiuLOUkbYovt947My-19" value="&lt;span style=&quot;font-size: 16px;&quot;&gt;DF&lt;/span&gt;" style="rounded=1;whiteSpace=wrap;html=1;strokeColor=#10739E;fillColor=#10739E;fontColor=#FFFFFF;" vertex="1" parent="1">
          <mxGeometry x="240" y="220" width="60" height="30" as="geometry" />
        </mxCell>
        <mxCell id="kriRiuLOUkbYovt947My-20" value="" style="shape=curlyBracket;whiteSpace=wrap;html=1;rounded=1;labelPosition=left;verticalLabelPosition=middle;align=right;verticalAlign=middle;" vertex="1" parent="1">
          <mxGeometry x="210" y="110" width="20" height="120" as="geometry" />
        </mxCell>
      </root>
    </mxGraphModel>
  </diagram>
</mxfile>
